<svg height="496pt" viewBox="0 -15 496 495" width="496pt" xmlns="http://www.w3.org/2000/svg"><path d="m472.246094 200.738281-48.246094-21.429687v-10.808594h-.886719c4.757813-4.65625 8.664063-10.167969 11.535157-16.273438 16.390624-1.367187 29.351562-14.984374 29.351562-31.726562v-40c0-44.113281-35.886719-80-80-80s-80 35.886719-80 80v40 .007812c0 16.734376 12.960938 30.351563 29.351562 31.726563 2.871094 6.097656 6.769532 11.609375 11.535157 16.273437h-.886719v10.808594l-48.238281 21.441406c-14.433594 6.398438-23.761719 20.742188-23.761719 36.542969v83.199219h224v-83.199219c0-15.800781-9.328125-30.144531-23.753906-36.5625zm-43.671875-1.894531-15.917969 37.152344-17.257812-12.9375 22.992187-28.734375zm11.097656-64.390625c.207031-1.960937.328125-3.945313.328125-5.953125v-21.777344c4.761719 2.777344 8 7.882813 8 13.777344 0 6.023438-3.390625 11.222656-8.328125 13.953125zm-55.671875-117.953125c35.289062 0 64 28.710938 64 64v12.449219c-4.726562-2.753907-10.144531-4.449219-16-4.449219h-8v-16h-16v16h-16v-16h-16v16h-16v-16h-16v16h-8c-5.855469 0-11.273438 1.695312-16 4.457031v-12.457031c0-35.289062 28.710938-64 64-64zm-64 104.007812c0-5.894531 3.238281-11.007812 8-13.785156v21.777344c0 2.015625.121094 4 .328125 5.953125-4.9375-2.722656-8.328125-7.921875-8.328125-13.945313zm24 7.992188v-24h80v24c0 22.054688-17.945312 40-40 40s-40-17.945312-40-40zm40 56c8.601562 0 16.710938-2.007812 24-5.480469v2.671875l-24 30-24-30v-2.671875c7.289062 3.472657 15.398438 5.480469 24 5.480469zm-34.390625 9.816406 22.992187 28.734375-17.257812 12.9375-15.917969-37.144531zm-61.609375 42.984375c0-9.480469 5.59375-18.089843 14.257812-21.929687l22.550782-10.023438 23.855468 55.664063 27.335938-20.511719v64h-40v-40h-16v40h-32zm192 67.199219h-32v-40h-16v40h-40v-64l27.34375 20.511719 23.855469-55.664063 22.554687 10.023438c8.652344 3.839844 14.246094 12.449218 14.246094 21.929687zm0 0"/><path d="m250.449219 336.5c-5.449219-15.390625-14.707031-28.769531-26.449219-39.304688v-59.894531c0-15.800781-9.328125-30.144531-23.753906-36.554687l-8.246094-3.671875v-116.574219c0-44.113281-35.886719-80-80-80s-80 35.886719-80 80v116.574219l-8.238281 3.664062c-14.433594 6.417969-23.761719 20.761719-23.761719 36.5625v83.199219h76.992188c-8.207032 14.136719-12.992188 30.503906-12.992188 48 0 52.9375 43.0625 96 96 96 40.65625 0 77.007812-26.03125 90.449219-64h72.863281l12.6875-12.6875 12.6875 12.6875h22.625l12.6875-12.6875 12.6875 12.6875h21.738281l29.574219-19.71875v-24.5625l-29.574219-19.71875zm-42.449219-99.199219v48.230469c-6.390625-3.710938-13.214844-6.695312-20.359375-8.871094 2.75-5.167968 4.359375-10.921875 4.359375-16.960937 0-12.023438-6.078125-23.375-16-30.070313v-22.160156l17.753906 7.886719c8.652344 3.855469 14.246094 12.464843 14.246094 21.945312zm-56-57.992187v-11.6875c4.367188-4.464844 7.960938-9.671875 10.648438-15.386719 4.847656-.40625 9.359374-1.855469 13.351562-4.183594v41.921875zm-40 21.191406c-13.007812 0-24-7.328125-24-16v-5.480469c7.289062 3.472657 15.398438 5.480469 24 5.480469s16.710938-2.007812 24-5.480469v5.480469c0 8.671875-10.992188 16-24 16zm-55.671875-66.046875c-4.9375-2.722656-8.328125-7.921875-8.328125-13.945313 0-5.894531 3.238281-11.007812 8-13.785156v21.777344c0 2.015625.121094 4 .328125 5.953125zm17.039063-29.953125c14.183593 0 27.648437-4.6875 38.632812-13.320312 10.984375 8.632812 24.449219 13.320312 38.632812 13.320312h1.367188v24c0 22.054688-17.945312 40-40 40s-40-17.945312-40-40v-24zm94.632812 24v-21.777344c4.761719 2.777344 8 7.882813 8 13.777344 0 6.023438-3.390625 11.222656-8.328125 13.953125.207031-1.960937.328125-3.945313.328125-5.953125zm-56-112c35.289062 0 64 28.710938 64 64v12.449219c-4.726562-2.753907-10.144531-4.449219-16-4.449219h-9.367188c-12.457031 0-24.167968-4.847656-32.976562-13.65625l-5.65625-5.65625-5.65625 5.65625c-8.808594 8.808594-20.519531 13.65625-32.976562 13.65625h-9.367188c-5.855469 0-11.273438 1.695312-16 4.457031v-12.457031c0-35.289062 28.710938-64 64-64zm-64 131.550781c3.992188 2.328125 8.503906 3.777344 13.351562 4.183594 2.6875 5.714844 6.28125 10.921875 10.648438 15.386719v11.6875l-24 10.664062zm-32 89.25c0-9.480469 5.59375-18.089843 14.257812-21.929687l17.742188-7.894532v22.152344c-9.910156 6.6875-16 18.039063-16 30.070313s6.089844 23.386719 16 30.074219v14.726562h-32zm48 67.199219v-23.734375l-6.167969-3.699219c-6.0625-3.636718-9.832031-10.285156-9.832031-17.367187 0-7.078125 3.769531-13.734375 9.832031-17.375l6.167969-3.6875v-38.273438l10.640625-4.726562c5.679687 12.152343 20.214844 20.863281 37.359375 20.863281s31.679688-8.710938 37.359375-20.863281l10.640625 4.726562v38.273438l6.167969 3.695312c6.0625 3.640625 9.832031 10.296875 9.832031 17.367188 0 5.058593-1.945312 9.785156-5.28125 13.480469-3.535156-.398438-7.101562-.679688-10.71875-.679688-28.335938 0-53.761719 12.414062-71.351562 32zm368 67.71875-18.425781 12.28125h-10.261719l-19.3125-19.3125-19.3125 19.3125h-9.375l-19.3125-19.3125-19.3125 19.3125h-78.136719l-1.648437 5.824219c-9.703125 34.253906-41.328125 58.175781-76.902344 58.175781-44.113281 0-80-35.886719-80-80s35.886719-80 80-80c35.574219 0 67.199219 23.921875 76.902344 58.175781l1.648437 5.824219h175.023438l18.425781 12.28125zm0 0"/><path d="m160 304.5c-35.289062 0-64 28.710938-64 64s28.710938 64 64 64 64-28.710938 64-64-28.710938-64-64-64zm0 112c-26.472656 0-48-21.527344-48-48s21.527344-48 48-48 48 21.527344 48 48-21.527344 48-48 48zm0 0"/></svg>